<mxfile host="app.diagrams.net" modified="2020-08-01T16:11:56.985Z" agent="5.0 (Windows NT 10.0; Win64; x64) AppleWebKit/537.36 (KHTML, like Gecko) Chrome/80.0.3987.163 Safari/537.36" etag="yR6vq-TPoL-bzmDGoXq7" version="13.5.8" type="github">
  <diagram id="eyB32HoTgV5fP7hJ12qs" name="use-cases">
    <mxGraphModel dx="1412" dy="742" grid="1" gridSize="10" guides="1" tooltips="1" connect="1" arrows="1" fold="1" page="1" pageScale="1" pageWidth="827" pageHeight="1169" math="0" shadow="0">
      <root>
        <mxCell id="0" />
        <mxCell id="1" parent="0" />
        <mxCell id="OFLatii9XghUNUBaLaci-1" value="&lt;div style=&quot;text-align: left&quot;&gt;&lt;span&gt;Menu&lt;/span&gt;&lt;/div&gt;" style="rounded=0;whiteSpace=wrap;html=1;shadow=0;glass=0;comic=1;strokeColor=#000000;labelPosition=center;verticalLabelPosition=middle;align=left;verticalAlign=top;absoluteArcSize=1;arcSize=50;" vertex="1" parent="1">
          <mxGeometry width="280" height="360" as="geometry" />
        </mxCell>
        <mxCell id="OFLatii9XghUNUBaLaci-14" value="" style="group" vertex="1" connectable="0" parent="1">
          <mxGeometry x="40" y="80" width="190" height="240" as="geometry" />
        </mxCell>
        <mxCell id="OFLatii9XghUNUBaLaci-2" value="Player" style="shape=umlActor;verticalLabelPosition=bottom;labelBackgroundColor=#ffffff;verticalAlign=top;html=1;rounded=1;shadow=0;comic=1;strokeWidth=1;comic=1" vertex="1" parent="OFLatii9XghUNUBaLaci-14">
          <mxGeometry y="80" width="30" height="60" as="geometry" />
        </mxCell>
        <mxCell id="OFLatii9XghUNUBaLaci-4" value="Load game" style="rounded=1;whiteSpace=wrap;html=1;absoluteArcSize=1;arcSize=50;strokeWidth=1;shadow=0;comic=1;" vertex="1" parent="OFLatii9XghUNUBaLaci-14">
          <mxGeometry x="80" width="110" height="80" as="geometry" />
        </mxCell>
        <mxCell id="OFLatii9XghUNUBaLaci-5" value="" style="endArrow=none;html=1;entryX=0;entryY=0.75;entryDx=0;entryDy=0;" edge="1" parent="OFLatii9XghUNUBaLaci-14" target="OFLatii9XghUNUBaLaci-4">
          <mxGeometry width="50" height="50" relative="1" as="geometry">
            <mxPoint x="40" y="120" as="sourcePoint" />
            <mxPoint x="80" y="20" as="targetPoint" />
          </mxGeometry>
        </mxCell>
        <mxCell id="OFLatii9XghUNUBaLaci-7" value="start game" style="rounded=1;whiteSpace=wrap;html=1;absoluteArcSize=1;arcSize=50;strokeWidth=1;shadow=0;comic=1;" vertex="1" parent="OFLatii9XghUNUBaLaci-14">
          <mxGeometry x="80" y="160" width="110" height="80" as="geometry" />
        </mxCell>
        <mxCell id="OFLatii9XghUNUBaLaci-13" value="" style="endArrow=none;html=1;" edge="1" parent="OFLatii9XghUNUBaLaci-14" target="OFLatii9XghUNUBaLaci-7">
          <mxGeometry width="50" height="50" relative="1" as="geometry">
            <mxPoint x="40" y="120" as="sourcePoint" />
            <mxPoint x="80" y="120" as="targetPoint" />
          </mxGeometry>
        </mxCell>
        <mxCell id="OFLatii9XghUNUBaLaci-15" value="&lt;div style=&quot;text-align: left&quot;&gt;&lt;span&gt;Ingame&lt;/span&gt;&lt;/div&gt;" style="rounded=0;whiteSpace=wrap;html=1;shadow=0;glass=0;comic=1;strokeColor=#000000;labelPosition=center;verticalLabelPosition=middle;align=left;verticalAlign=top;absoluteArcSize=1;arcSize=50;" vertex="1" parent="1">
          <mxGeometry y="1170" width="480" height="980" as="geometry" />
        </mxCell>
        <mxCell id="OFLatii9XghUNUBaLaci-16" value="Player" style="shape=umlActor;verticalLabelPosition=bottom;labelBackgroundColor=#ffffff;verticalAlign=top;html=1;rounded=1;shadow=0;comic=1;strokeWidth=1;comic=1" vertex="1" parent="1">
          <mxGeometry x="40" y="1630" width="30" height="60" as="geometry" />
        </mxCell>
        <mxCell id="OFLatii9XghUNUBaLaci-17" value="ask for help" style="rounded=1;whiteSpace=wrap;html=1;absoluteArcSize=1;arcSize=50;strokeWidth=1;shadow=0;comic=1;" vertex="1" parent="1">
          <mxGeometry x="310" y="1200" width="110" height="80" as="geometry" />
        </mxCell>
        <mxCell id="OFLatii9XghUNUBaLaci-18" value="look around" style="rounded=1;whiteSpace=wrap;html=1;absoluteArcSize=1;arcSize=50;strokeWidth=1;shadow=0;comic=1;" vertex="1" parent="1">
          <mxGeometry x="310" y="1320" width="110" height="80" as="geometry" />
        </mxCell>
        <mxCell id="OFLatii9XghUNUBaLaci-19" value="show inventory" style="rounded=1;whiteSpace=wrap;html=1;absoluteArcSize=1;arcSize=50;strokeWidth=1;shadow=0;comic=1;" vertex="1" parent="1">
          <mxGeometry x="310" y="1440" width="110" height="80" as="geometry" />
        </mxCell>
        <mxCell id="OFLatii9XghUNUBaLaci-20" value="take item" style="rounded=1;whiteSpace=wrap;html=1;absoluteArcSize=1;arcSize=50;strokeWidth=1;shadow=0;comic=1;" vertex="1" parent="1">
          <mxGeometry x="310" y="1680" width="110" height="80" as="geometry" />
        </mxCell>
        <mxCell id="OFLatii9XghUNUBaLaci-21" value="drop item&lt;br&gt;" style="rounded=1;whiteSpace=wrap;html=1;absoluteArcSize=1;arcSize=50;strokeWidth=1;shadow=0;comic=1;" vertex="1" parent="1">
          <mxGeometry x="310" y="1560" width="110" height="80" as="geometry" />
        </mxCell>
        <mxCell id="OFLatii9XghUNUBaLaci-23" value="savce and quit" style="rounded=1;whiteSpace=wrap;html=1;absoluteArcSize=1;arcSize=50;strokeWidth=1;shadow=0;comic=1;" vertex="1" parent="1">
          <mxGeometry x="310" y="1800" width="110" height="80" as="geometry" />
        </mxCell>
        <mxCell id="OFLatii9XghUNUBaLaci-24" value="talk to npc" style="rounded=1;whiteSpace=wrap;html=1;absoluteArcSize=1;arcSize=50;strokeWidth=1;shadow=0;comic=1;" vertex="1" parent="1">
          <mxGeometry x="310" y="1920" width="110" height="80" as="geometry" />
        </mxCell>
        <mxCell id="OFLatii9XghUNUBaLaci-25" value="guess guilty npc" style="rounded=1;whiteSpace=wrap;html=1;absoluteArcSize=1;arcSize=50;strokeWidth=1;shadow=0;comic=1;" vertex="1" parent="1">
          <mxGeometry x="310" y="2040" width="110" height="80" as="geometry" />
        </mxCell>
        <mxCell id="OFLatii9XghUNUBaLaci-28" value="" style="endArrow=none;html=1;entryX=0;entryY=0.25;entryDx=0;entryDy=0;" edge="1" parent="1" target="OFLatii9XghUNUBaLaci-17">
          <mxGeometry width="50" height="50" relative="1" as="geometry">
            <mxPoint x="80" y="1660" as="sourcePoint" />
            <mxPoint x="220" y="1320" as="targetPoint" />
          </mxGeometry>
        </mxCell>
        <mxCell id="OFLatii9XghUNUBaLaci-29" value="" style="endArrow=none;html=1;entryX=-0.018;entryY=0.338;entryDx=0;entryDy=0;entryPerimeter=0;" edge="1" parent="1" target="OFLatii9XghUNUBaLaci-18">
          <mxGeometry width="50" height="50" relative="1" as="geometry">
            <mxPoint x="80" y="1660" as="sourcePoint" />
            <mxPoint x="270" y="1460" as="targetPoint" />
          </mxGeometry>
        </mxCell>
        <mxCell id="OFLatii9XghUNUBaLaci-30" value="" style="endArrow=none;html=1;entryX=0;entryY=0.25;entryDx=0;entryDy=0;" edge="1" parent="1" target="OFLatii9XghUNUBaLaci-19">
          <mxGeometry width="50" height="50" relative="1" as="geometry">
            <mxPoint x="80" y="1660" as="sourcePoint" />
            <mxPoint x="280" y="1510" as="targetPoint" />
          </mxGeometry>
        </mxCell>
        <mxCell id="OFLatii9XghUNUBaLaci-31" value="" style="endArrow=none;html=1;entryX=-0.027;entryY=0.175;entryDx=0;entryDy=0;entryPerimeter=0;" edge="1" parent="1" target="OFLatii9XghUNUBaLaci-21">
          <mxGeometry width="50" height="50" relative="1" as="geometry">
            <mxPoint x="80" y="1660" as="sourcePoint" />
            <mxPoint x="230" y="1620" as="targetPoint" />
          </mxGeometry>
        </mxCell>
        <mxCell id="OFLatii9XghUNUBaLaci-32" value="" style="endArrow=none;html=1;exitX=0;exitY=0.75;exitDx=0;exitDy=0;" edge="1" parent="1" source="OFLatii9XghUNUBaLaci-20">
          <mxGeometry width="50" height="50" relative="1" as="geometry">
            <mxPoint x="120" y="1810" as="sourcePoint" />
            <mxPoint x="80" y="1660" as="targetPoint" />
          </mxGeometry>
        </mxCell>
        <mxCell id="OFLatii9XghUNUBaLaci-33" value="" style="endArrow=none;html=1;exitX=0;exitY=0.75;exitDx=0;exitDy=0;" edge="1" parent="1" source="OFLatii9XghUNUBaLaci-23">
          <mxGeometry width="50" height="50" relative="1" as="geometry">
            <mxPoint x="100" y="1800" as="sourcePoint" />
            <mxPoint x="80" y="1660" as="targetPoint" />
          </mxGeometry>
        </mxCell>
        <mxCell id="OFLatii9XghUNUBaLaci-34" value="" style="endArrow=none;html=1;exitX=0;exitY=0.75;exitDx=0;exitDy=0;" edge="1" parent="1" source="OFLatii9XghUNUBaLaci-24">
          <mxGeometry width="50" height="50" relative="1" as="geometry">
            <mxPoint x="110" y="1860" as="sourcePoint" />
            <mxPoint x="80" y="1660" as="targetPoint" />
          </mxGeometry>
        </mxCell>
        <mxCell id="OFLatii9XghUNUBaLaci-35" value="" style="endArrow=none;html=1;exitX=0;exitY=0.663;exitDx=0;exitDy=0;exitPerimeter=0;" edge="1" parent="1" source="OFLatii9XghUNUBaLaci-25">
          <mxGeometry width="50" height="50" relative="1" as="geometry">
            <mxPoint x="90" y="1920" as="sourcePoint" />
            <mxPoint x="80" y="1660" as="targetPoint" />
          </mxGeometry>
        </mxCell>
      </root>
    </mxGraphModel>
  </diagram>
</mxfile>
